<svg width="340" height="131" viewBox="0 0 340 131" fill="none" xmlns="http://www.w3.org/2000/svg">
<rect width="130.769" height="130.769" rx="15.6923" fill="#D4AF37"/>
<path d="M39.2517 67.1729V87.3846H33.7908V43.4461H39.2517V62.528H52.1822V43.4461H57.6431V87.3846H52.1822V67.1729H39.2517ZM91.2898 77.3415C91.2898 80.8566 90.4111 83.4092 88.6535 84.9994C86.9378 86.5895 84.2597 87.3846 80.6191 87.3846H78.5477C74.9071 87.3846 72.208 86.5895 70.4504 84.9994C68.7348 83.4092 67.8769 80.8566 67.8769 77.3415V66.0431C67.8769 62.528 68.7348 59.9754 70.4504 58.3852C72.208 56.7951 74.9071 56 78.5477 56H80.6191C84.2597 56 86.9378 56.7951 88.6535 58.3852C90.4111 59.9754 91.2898 62.528 91.2898 66.0431V77.3415ZM85.9544 64.7877C85.9544 63.4905 85.5569 62.4862 84.7618 61.7748C83.9668 61.0634 82.7951 60.7077 81.2468 60.7077H77.92C76.3717 60.7077 75.2 61.0634 74.4049 61.7748C73.6098 62.4862 73.2123 63.4905 73.2123 64.7877V78.5969C73.2123 79.8942 73.6098 80.8985 74.4049 81.6098C75.2 82.3212 76.3717 82.6769 77.92 82.6769H81.2468C82.7951 82.6769 83.9668 82.3212 84.7618 81.6098C85.5569 80.8985 85.9544 79.8942 85.9544 78.5969V64.7877ZM107.047 56V57.5065C108.345 56.5022 110.018 56 112.069 56H114.956C118.346 56 120.857 56.7951 122.489 58.3852C124.162 59.9754 124.999 62.528 124.999 66.0431V87.3846H119.664V64.7877C119.664 63.5323 119.287 62.5489 118.534 61.8375C117.823 61.0843 116.839 60.7077 115.584 60.7077H111.441C110.06 60.7077 109.035 61.0843 108.366 61.8375C107.696 62.5489 107.361 63.3231 107.361 64.16V87.3846H102.026V56H107.047Z" fill="white"/>
<path d="M147.034 87.3846C143.351 87.3846 140.652 86.6105 138.937 85.0622C137.221 83.472 136.363 80.8985 136.363 77.3415V66.0431C136.363 62.4443 137.137 59.8708 138.686 58.3225C140.234 56.7742 142.807 56 146.406 56H149.356C152.327 56 154.566 56.8369 156.073 58.5108C157.621 60.1428 158.395 62.5489 158.395 65.7292V73.8892H141.698V78.5969C141.698 79.8942 142.096 80.8985 142.891 81.6098C143.686 82.3212 144.858 82.6769 146.406 82.6769H156.386V87.3846H147.034ZM153.185 64.4738C153.185 63.3858 152.83 62.4862 152.118 61.7748C151.407 61.0634 150.507 60.7077 149.419 60.7077H145.778C144.272 60.7077 143.205 61.0634 142.577 61.7748C141.991 62.4443 141.698 63.4486 141.698 64.7877V69.1815H153.185V64.4738ZM175.659 93.3477C176.663 93.3477 177.417 93.1594 177.919 92.7828C178.421 92.4062 178.797 91.7575 179.049 90.8369L179.927 87.3846H178.672L168.315 56H174.09L181.936 82.3003L188.778 56H194.239L184.509 90.7742C183.965 92.9083 183.296 94.4985 182.501 95.5446C181.706 96.5908 180.806 97.2603 179.802 97.5532C178.839 97.888 177.584 98.0554 176.036 98.0554H173.023V93.3477H175.659ZM226.693 77.3415C226.693 80.8566 225.814 83.4092 224.057 84.9994C222.341 86.5895 219.663 87.3846 216.022 87.3846H203.719V43.4461H209.055V57.2554C210.31 56.4185 211.879 56 213.762 56H216.022C219.705 56 222.404 56.7951 224.119 58.3852C225.835 59.9335 226.693 62.4862 226.693 66.0431V77.3415ZM213.135 60.7077C211.754 60.7077 210.729 61.0843 210.059 61.8375C209.389 62.5489 209.055 63.3231 209.055 64.16V82.6769H216.65C218.198 82.6769 219.37 82.3212 220.165 81.6098C220.96 80.8985 221.357 79.8942 221.357 78.5969V64.7877C221.357 63.4905 220.96 62.4862 220.165 61.7748C219.37 61.0634 218.198 60.7077 216.65 60.7077H213.135ZM243.455 93.3477C244.459 93.3477 245.212 93.1594 245.714 92.7828C246.217 92.4062 246.593 91.7575 246.844 90.8369L247.723 87.3846H246.468L236.111 56H241.885L249.732 82.3003L256.573 56H262.034L252.305 90.7742C251.761 92.9083 251.092 94.4985 250.297 95.5446C249.501 96.5908 248.602 97.2603 247.597 97.5532C246.635 97.888 245.38 98.0554 243.831 98.0554H240.818V93.3477H243.455ZM285.324 87.3846C283.19 87.3846 281.558 86.6942 280.428 85.3132C279.298 83.9323 278.733 82.112 278.733 79.8523V60.7077H272.77V56H278.733V48.4677H284.069V56H293.233V60.7077H284.069V80.1662C284.069 81.0868 284.299 81.7354 284.759 82.112C285.22 82.4886 285.931 82.6769 286.893 82.6769H293.233V87.3846H285.324ZM316.523 87.3846C312.841 87.3846 310.141 86.6105 308.426 85.0622C306.71 83.472 305.852 80.8985 305.852 77.3415V66.0431C305.852 62.4443 306.626 59.8708 308.175 58.3225C309.723 56.7742 312.297 56 315.895 56H318.845C321.817 56 324.055 56.8369 325.562 58.5108C327.11 60.1428 327.884 62.5489 327.884 65.7292V73.8892H311.188V78.5969C311.188 79.8942 311.585 80.8985 312.38 81.6098C313.175 82.3212 314.347 82.6769 315.895 82.6769H325.876V87.3846H316.523ZM322.674 64.4738C322.674 63.3858 322.319 62.4862 321.607 61.7748C320.896 61.0634 319.996 60.7077 318.908 60.7077H315.268C313.761 60.7077 312.694 61.0634 312.066 61.7748C311.481 62.4443 311.188 63.4486 311.188 64.7877V69.1815H322.674V64.4738Z" fill="#D4AF37"/>
<rect x="27.4615" y="35.3077" width="311.231" height="65.3846" rx="14.3846" stroke="#D4AF37" stroke-width="2.61538"/>
</svg>
